<svg xmlns="http://www.w3.org/2000/svg" viewBox="0 0 128 128" role="img" aria-labelledby="title">
  <title id="title">Check Make small icon</title>
  <defs>
    <clipPath id="tile"><rect width="128" height="128" rx="27"/></clipPath>
    <clipPath id="left"><rect width="64" height="128"/></clipPath>
    <clipPath id="right"><rect x="64" width="64" height="128"/></clipPath>
    <linearGradient id="frame" x1="0" y1="0" x2="1" y2="1"><stop stop-color="#ffffff"/><stop offset="1" stop-color="#d7dad8"/></linearGradient>
    <linearGradient id="check" x1="0" y1="0" x2="1" y2="1"><stop stop-color="#52dba0"/><stop offset="1" stop-color="#28bd80"/></linearGradient>
  </defs>
  <g clip-path="url(#tile)">
    <rect width="128" height="128" fill="#171a19"/>
    <rect width="64" height="128" fill="#073a60"/>
    <g clip-path="url(#left)" fill="none" stroke="#e7f6ff" stroke-width="2.5" stroke-linejoin="miter">
      <path d="M64 20 104 43v48l-40 23-40-23V43Z"/><path d="m24 43 40 23 40-23M64 66v48"/>
      <path d="M64 29 35 45l29 17M31 49v38l33 19" stroke="#75bde8" stroke-width="1.5"/>
    </g>
    <g clip-path="url(#right)" fill="none" stroke-linecap="square" stroke-linejoin="miter">
      <path d="M64 20 104 43v48l-40 23-40-23V43Zm-40 23 40 23 40-23M64 66v48" stroke="#8f9692" stroke-width="11" opacity=".5" transform="translate(1 2)"/>
      <path d="M64 20 104 43v48l-40 23-40-23V43Zm-40 23 40 23 40-23M64 66v48" stroke="url(#frame)" stroke-width="8"/>
    </g>
    <path d="m31 66 25 20 45-43" fill="none" stroke="#0c5039" stroke-width="15" stroke-linecap="round" stroke-linejoin="round" opacity=".55" transform="translate(1 2)"/>
    <path d="m31 66 25 20 45-43" fill="none" stroke="url(#check)" stroke-width="12" stroke-linecap="round" stroke-linejoin="round"/>
  </g>
</svg>
